<?xml version="1.0" encoding="UTF-8" standalone="no"?>
<!-- Generator: Adobe Illustrator 25.2.0, SVG Export Plug-In . SVG Version: 6.00 Build 0)  -->

<svg
   version="1.1"
   x="0px"
   y="0px"
   viewBox="0 0 1134 1134"
   xml:space="preserve"
   id="svg7"
   sodipodi:docname="Pexip-Logo-Blue-RGB.svg"
   width="1134"
   height="1134"
   inkscape:version="1.1.2 (0a00cf5339, 2022-02-04)"
   xmlns:inkscape="http://www.inkscape.org/namespaces/inkscape"
   xmlns:sodipodi="http://sodipodi.sourceforge.net/DTD/sodipodi-0.dtd"
   xmlns="http://www.w3.org/2000/svg"
   xmlns:svg="http://www.w3.org/2000/svg"><defs
   id="defs11" /><sodipodi:namedview
   id="namedview9"
   pagecolor="#ffffff"
   bordercolor="#666666"
   borderopacity="1.0"
   inkscape:pageshadow="2"
   inkscape:pageopacity="0.0"
   inkscape:pagecheckerboard="0"
   showgrid="false"
   height="1134px"
   lock-margins="false"
   inkscape:zoom="0.28427794"
   inkscape:cx="165.33116"
   inkscape:cy="633.18315"
   inkscape:window-width="1920"
   inkscape:window-height="1043"
   inkscape:window-x="1920"
   inkscape:window-y="0"
   inkscape:window-maximized="1"
   inkscape:current-layer="svg7" />
<style
   type="text/css"
   id="style2">
	.st0{fill:#0A2136;}
</style>
<g
   id="Layer_1">
</g>
<g
   id="Design"
   transform="translate(0,284)">
	<path
   id="XMLID_6_"
   class="st0"
   d="m 369.7,229.5 c -18.9,0 -30.7,11 -35.8,18.9 V 233 h -26.1 v 151.3 h 26.8 v -37.5 -17 c 5,8.6 16.5,15.9 35.1,15.9 27.9,0 46.5,-23 46.5,-58 0.1,-35.1 -18.6,-58.2 -46.5,-58.2 z m -8.8,92.8 c -16.2,0 -27.7,-11.5 -27.7,-34.8 0,-23.1 11.4,-34.6 27.7,-34.6 15.6,0 27.4,9.1 27.4,34.6 0.1,25.7 -11.8,34.8 -27.4,34.8 z m 435.8,-92.8 c -18.9,0 -30.7,11 -35.8,18.9 V 233 h -26.1 v 151.3 h 26.8 v -37.5 -17 c 5,8.6 16.5,15.9 35.1,15.9 27.9,0 46.5,-23 46.5,-58 0.1,-35.1 -18.6,-58.2 -46.5,-58.2 z m -8.8,92.8 c -16.2,0 -27.7,-11.5 -27.7,-34.8 0,-23.1 11.4,-34.6 27.7,-34.6 15.6,0 27.4,9.1 27.4,34.6 0.1,25.7 -11.8,34.8 -27.4,34.8 z m -170.6,-36.1 41.3,56.2 h -32.5 l -11,-16 c -5.9,-9 -10.3,-15.4 -14.5,-21.3 -4.6,6.6 -8.8,12.5 -14.5,21.1 l -11,16.2 h -29 L 586.5,285.8 548.2,233 h 32.1 l 9.4,14.3 c 5.9,8.8 9.4,14 13.4,19.8 4.2,-5.7 7.5,-10.8 13.6,-19.8 L 626.6,233 H 656 Z M 677.7,233 h 26.6 v 109.3 h -26.6 z m 29.9,-34.6 c 0,9.2 -7.5,16.7 -16.7,16.7 -9.2,0 -16.7,-7.5 -16.7,-16.7 0,-9.2 7.5,-16.7 16.7,-16.7 9.2,0 16.7,7.5 16.7,16.7 z M 942,192.3 v 24 h -27 v 144 h 27 v 24 h -51 v -192 z M 487.4,324.6 c -14,0 -25.9,-8.1 -27,-30.3 h 77.3 c 3.5,-36.2 -16,-64.5 -50.9,-64.5 -30.3,0 -52.9,23 -52.9,58 0,36.4 21.1,58 53.3,58 28.8,0 44.1,-14.9 51.1,-31.8 l -24.1,-9 c -4,9 -11.2,19.6 -26.8,19.6 z m -0.7,-74.9 c 13.8,0 23.5,8.8 24.4,24.8 h -49.8 c 1.9,-15.8 12.2,-24.8 25.4,-24.8 z M 192,384.3 v -24 h 27 v -144 h -27 v -24 h 51 v 192 z" />
</g>
</svg>
